<svg width="327" height="348" viewBox="0 0 327 348" fill="none" xmlns="http://www.w3.org/2000/svg">
<path d="M123 34C123 28.4772 127.477 24 133 24H317C322.523 24 327 28.4772 327 34V51C327 56.5228 322.523 61 317 61H133C127.477 61 123 56.5228 123 51V34Z" fill="#8C7BC7"/>
<rect y="24" width="61" height="37" rx="10" fill="#8EB4CB"/>
<path fill-rule="evenodd" clip-rule="evenodd" d="M92.5 84C115.42 84 134 65.196 134 42C134 18.804 115.42 0 92.5 0C69.5802 0 51 18.804 51 42C51 65.196 69.5802 84 92.5 84ZM92.5 66C104.926 66 115 55.7026 115 43C115 30.2974 104.926 20 92.5 20C80.0736 20 70 30.2974 70 43C70 55.7026 80.0736 66 92.5 66Z" fill="#8C7BC7"/>
<path d="M123 298C123 292.477 127.477 288 133 288H317C322.523 288 327 292.477 327 298V315C327 320.523 322.523 325 317 325H133C127.477 325 123 320.523 123 315V298Z" fill="#8C7BC7"/>
<rect y="288" width="61" height="37" rx="10" fill="#8EB4CB"/>
<path fill-rule="evenodd" clip-rule="evenodd" d="M92.5 348C115.42 348 134 329.196 134 306C134 282.804 115.42 264 92.5 264C69.5802 264 51 282.804 51 306C51 329.196 69.5802 348 92.5 348ZM92.5 330C104.926 330 115 319.703 115 307C115 294.297 104.926 284 92.5 284C80.0736 284 70 294.297 70 307C70 319.703 80.0736 330 92.5 330Z" fill="#8C7BC7"/>
<path d="M204 166C204 160.477 199.523 156 194 156H10C4.47716 156 0 160.477 0 166V183C0 188.523 4.47716 193 10 193H194C199.523 193 204 188.523 204 183V166Z" fill="#8C7BC7"/>
<rect width="61" height="37" rx="10" transform="matrix(-1 0 0 1 327 156)" fill="#8EB4CB"/>
<path fill-rule="evenodd" clip-rule="evenodd" d="M234.5 216C211.58 216 193 197.196 193 174C193 150.804 211.58 132 234.5 132C257.42 132 276 150.804 276 174C276 197.196 257.42 216 234.5 216ZM234.5 198C222.074 198 212 187.703 212 175C212 162.297 222.074 152 234.5 152C246.926 152 257 162.297 257 175C257 187.703 246.926 198 234.5 198Z" fill="#8C7BC7"/>
</svg>
