<svg width="406" height="366" viewBox="0 0 406 366" fill="none" xmlns="http://www.w3.org/2000/svg">
<g clip-path="url(#clip0_25_132)">
<path d="M406 120.631C406 141.061 398.811 161.491 384.361 177.104L277.388 292.691C265.383 305.664 245.901 305.664 233.967 292.691L126.923 177.104C98.0947 145.877 98.0947 95.3854 126.923 64.1583C141.301 48.5447 160.28 40.7767 179.187 40.7767C198.094 40.7767 217.073 48.5447 231.451 64.1583L255.678 90.2586L278.539 65.5565C307.51 34.2517 354.958 32.6981 384.073 63.8476C398.667 79.5388 406 100.046 406 120.631Z" fill="#C2D5E0"/>
</g>
<path d="M316.559 77.2473C323.129 97.01 322.744 119.472 313.787 140.001L247.477 291.977C240.035 309.034 221.189 316.349 205.474 308.28L64.7545 236.658C26.826 217.274 10.5891 168.43 28.4339 127.399C37.3215 106.897 53.1828 92.257 71.4725 85.1583C89.7622 78.0595 110.619 78.4481 129.549 88.1536L161.378 104.306L175.549 71.8267C193.508 30.6664 238.907 11.3491 277.088 30.55C296.251 40.2497 309.939 57.3343 316.559 77.2473Z" fill="#F63395"/>
<path d="M209.432 219.421C224.145 214.389 232.297 197.422 227.64 181.526C222.983 165.629 207.28 156.823 192.567 161.856C177.854 166.889 169.702 183.855 174.359 199.752C179.016 215.648 194.719 224.454 209.432 219.421Z" fill="#C2D5E0"/>
<ellipse cx="224.314" cy="116.217" rx="15.3651" ry="16.6025" fill="#C2D5E0"/>
<defs>
<clipPath id="clip0_25_132">
<rect width="300.716" height="261.625" fill="white" transform="translate(105.284 40.7768)"/>
</clipPath>
</defs>
</svg>
