<svg width="373" height="373" viewBox="0 0 373 373" fill="none" xmlns="http://www.w3.org/2000/svg">
<rect x="93.25" y="182.615" width="279.75" height="190.385" fill="#E1EFF8"/>
<path fill-rule="evenodd" clip-rule="evenodd" d="M369.462 158.129L193.323 2.5872C189.416 -0.862406 183.584 -0.862399 179.677 2.58721L3.53826 158.129C1.28975 160.115 0 162.983 0 165.999V362.543C0 368.318 4.63883 373 10.3611 373H106.201C111.924 373 116.562 368.318 116.562 362.543V265.82C116.562 260.045 121.201 255.363 126.924 255.363H246.076C251.799 255.363 256.438 260.045 256.438 265.82V362.543C256.438 368.318 261.076 373 266.799 373H362.639C368.361 373 373 368.318 373 362.543V165.999C373 162.983 371.71 160.115 369.462 158.129ZM51.8056 174.325C46.0833 174.325 41.4444 179.006 41.4444 184.781C41.4444 190.556 46.0833 195.238 51.8056 195.238H93.25C98.9723 195.238 103.611 190.556 103.611 184.781C103.611 179.006 98.9723 174.325 93.25 174.325H51.8056Z" fill="#8C7BC7"/>
</svg>
