<svg width="662" height="725" viewBox="0 0 662 725" fill="none" xmlns="http://www.w3.org/2000/svg">
<path d="M0 0H662V724.522H0V0Z" fill="#C2D5E0"/>
<path d="M356.211 319.396C210.292 321.28 192.02 523.24 219.959 547.083C247.898 570.925 315.983 510.215 352.36 503.823C388.737 497.432 463.868 547.985 501.393 533.892C538.918 519.8 502.131 317.512 356.211 319.396Z" fill="white"/>
<path d="M94.9871 428.261C70.6999 408.53 28.7418 350.657 63.8457 331.31C98.9496 311.964 199.897 323.676 176.115 375.969C152.333 428.262 119.274 447.992 94.9871 428.261Z" fill="white"/>
<path d="M509.004 287.892C537.669 259.023 568.802 179.57 520.591 159.57C472.38 139.57 377.813 214.259 408.098 251.076C438.383 287.893 480.338 316.762 509.004 287.892Z" fill="white"/>
<path d="M583.473 408.722C607.983 391.894 641.147 339.084 609.253 318.164C577.359 297.245 499.298 338.003 516.033 368.558C532.768 399.113 558.964 425.549 583.473 408.722Z" fill="white"/>
<path d="M211.221 291.554C175.392 259.796 176.072 159.554 236.33 137.552C296.587 115.551 360.311 206.84 351.822 229.953C343.333 253.067 247.049 323.313 211.221 291.554Z" fill="white"/>
</svg>
