<svg width="27" height="40" viewBox="0 0 27 40" fill="none" xmlns="http://www.w3.org/2000/svg">
<line x1="1" y1="2" x2="0.999998" y2="37.7097" stroke="#5B5377" stroke-width="2"/>
<line x1="27" y1="38.7097" x2="1.90735e-06" y2="38.7097" stroke="#5B5377" stroke-width="2"/>
<line y1="1" x2="27" y2="1" stroke="#5B5377" stroke-width="2"/>
<path d="M12.0039 19.2297C11.4181 19.8155 11.4181 20.7652 12.0039 21.351L21.5498 30.8969C22.1356 31.4827 23.0853 31.4827 23.6711 30.8969C24.2569 30.3112 24.2569 29.3614 23.6711 28.7756L15.1858 20.2903L23.6711 11.8051C24.2569 11.2193 24.2569 10.2695 23.6711 9.68374C23.0853 9.09796 22.1356 9.09796 21.5498 9.68374L12.0039 19.2297ZM27 18.7903H13.0645V21.7903H27V18.7903Z" fill="#5B5377"/>
<line x1="1" y1="2" x2="0.999998" y2="37.7097" stroke="#5B5377" stroke-width="2"/>
<line y1="1" x2="27" y2="1" stroke="#5B5377" stroke-width="2"/>
<path d="M12.0039 19.2297C11.4181 19.8155 11.4181 20.7652 12.0039 21.351L21.5498 30.8969C22.1356 31.4827 23.0853 31.4827 23.6711 30.8969C24.2569 30.3112 24.2569 29.3614 23.6711 28.7756L15.1858 20.2903L23.6711 11.8051C24.2569 11.2193 24.2569 10.2695 23.6711 9.68374C23.0853 9.09796 22.1356 9.09796 21.5498 9.68374L12.0039 19.2297ZM27 18.7903H13.0645V21.7903H27V18.7903Z" fill="#5B5377"/>
</svg>
