<svg width="352" height="350" viewBox="0 0 352 350" fill="none" xmlns="http://www.w3.org/2000/svg">
<path fill-rule="evenodd" clip-rule="evenodd" d="M337.676 46.7497C345.025 39.4957 345.103 27.6571 337.849 20.3075C330.595 12.958 318.756 12.8806 311.407 20.1346L259.498 71.3688C252.161 78.6107 240.591 78.9571 231.946 73.3409C208.424 58.0603 180.358 49.1844 150.219 49.1844C67.2553 49.1844 0 116.44 0 199.403C0 282.367 67.2553 349.622 150.219 349.622C233.182 349.622 300.438 282.367 300.438 199.403C300.438 172.726 293.484 147.673 281.29 125.958C276.458 117.354 277.241 106.4 284.264 99.4679L337.676 46.7497ZM261.785 199.696C261.785 261.151 211.966 310.969 150.512 310.969C89.0572 310.969 39.2384 261.151 39.2384 199.696C39.2384 138.242 89.0572 88.423 150.512 88.423C211.966 88.423 261.785 138.242 261.785 199.696Z" fill="black"/>
<rect x="350.864" width="37.3957" height="128.864" rx="10" transform="rotate(90 350.864 0)" fill="black"/>
<rect x="314" width="37.3957" height="128.864" rx="10" fill="black"/>
</svg>
