<svg width="345" height="147" viewBox="0 0 345 147" fill="none" xmlns="http://www.w3.org/2000/svg">
<path d="M11 60.1681L0 146.168H74L68 65.1681C68 65.1681 84.5 50.1681 83.5 42.1681C82.5 34.1681 71 37.6681 71 34.6681C71 31.6681 70.5147 26.8544 67 22.1681C61.1421 14.3576 48 27.6681 48 27.6681C48 27.6681 41.5 11.1682 30.5 13.1682C19.5 15.1682 20 32.1681 20 32.1681C20 32.1681 0 32.1681 0 40.1681C0 48.1681 11 60.1681 11 60.1681Z" fill="#4E351B"/>
<path d="M27.4031 34.0538C23.8355 30.445 23.9032 19.0539 29.9032 16.5538C35.9032 14.0537 42.2483 24.4273 41.4031 27.0538C40.5578 29.6803 30.9706 37.6627 27.4031 34.0538Z" fill="#FFC0BB"/>
<path d="M13.0192 49.6247C10.2745 47.3949 5.53271 40.8545 9.49988 38.6681C13.4671 36.4817 24.8753 37.8053 22.1877 43.7151C19.5 49.6248 15.764 51.8546 13.0192 49.6247Z" fill="#FFC0BB"/>
<path d="M62.4999 38.1682C65.7472 34.906 69.274 25.9281 63.8126 23.6681C58.3511 21.4082 47.6384 29.8478 51.0692 34.008C54.4999 38.1682 59.2526 41.4304 62.4999 38.1682Z" fill="#FFC0BB"/>
<path d="M74.6768 51.1018C77.2748 48.4852 80.0965 41.2841 75.727 39.4714C71.3574 37.6587 62.7863 44.428 65.5312 47.7649C68.2761 51.1018 72.0787 53.7183 74.6768 51.1018Z" fill="#FFC0BB"/>
<path d="M44.5521 40.7349C26.1466 37.2012 18.6291 62.1358 21.5277 65.8572C24.4264 69.5786 34.5604 63.7005 39.3018 63.8365C44.0431 63.9725 52.1883 72.2735 57.2732 71.4704C62.3581 70.6673 62.9576 44.2686 44.5521 40.7349Z" fill="#FFC0BB"/>
<path d="M237.544 91.1681L248.544 152H177.544L180.544 96.1681C180.544 96.1681 164.044 81.1681 165.044 73.1681C166.044 65.1681 177.544 68.6681 177.544 65.6681C177.544 62.6681 178.029 57.8544 181.544 53.1681C187.402 45.3576 200.544 58.6681 200.544 58.6681C200.544 58.6681 207.044 42.1682 218.044 44.1682C229.044 46.1682 228.544 63.1681 228.544 63.1681C228.544 63.1681 248.544 63.1681 248.544 71.1681C248.544 79.1681 237.544 91.1681 237.544 91.1681Z" fill="#FFBA71"/>
<path d="M221.141 65.0538C224.708 61.445 224.64 50.054 218.641 47.5538C212.641 45.0537 206.295 55.4273 207.141 58.0538C207.986 60.6803 217.573 68.6627 221.141 65.0538Z" fill="#FF7A70"/>
<path d="M235.524 80.6248C238.269 78.3949 243.011 71.8545 239.044 69.6681C235.077 67.4817 223.668 68.8053 226.356 74.7151C229.044 80.6249 232.78 82.8546 235.524 80.6248Z" fill="#FF7A70"/>
<path d="M186.044 69.1682C182.796 65.906 179.27 56.9281 184.731 54.6681C190.192 52.4082 200.905 60.8478 197.474 65.008C194.044 69.1682 189.291 72.4304 186.044 69.1682Z" fill="#FF7A70"/>
<path d="M173.867 82.1018C171.269 79.4852 168.447 72.2841 172.817 70.4714C177.186 68.6587 185.757 75.428 183.012 78.7649C180.268 82.1018 176.465 84.7183 173.867 82.1018Z" fill="#FF7A70"/>
<path d="M203.992 71.7349C222.397 68.2012 229.915 93.1358 227.016 96.8572C224.117 100.579 213.983 94.7005 209.242 94.8365C204.5 94.9725 196.355 103.274 191.27 102.47C186.185 101.667 185.586 75.2687 203.992 71.7349Z" fill="#FF7A70"/>
<path d="M264.735 59.7238L264.735 146.388L333.548 146.388L321.819 55.786C321.819 55.786 335.781 38.3994 333.548 30.6527C331.314 22.906 320.499 28.1543 320.032 25.1909C319.565 22.2275 318.336 17.5481 314.134 13.4664C307.132 6.66343 296.223 21.8581 296.223 21.8581C296.223 21.8581 287.232 6.57179 276.678 10.2604C266.124 13.9491 269.265 30.6638 269.265 30.6638C269.265 30.6638 249.509 33.7784 250.755 41.6808C252.001 49.5832 264.735 59.7238 264.735 59.7238Z" fill="#9083B1"/>
<path d="M275.951 31.8445C271.801 28.9244 269.85 17.7015 275.313 14.1783C280.775 10.6552 288.857 19.7412 288.49 22.4759C288.123 25.2106 280.101 34.7645 275.951 31.8445Z" fill="#F99088"/>
<path d="M264.552 49.7165C261.456 48.0079 255.631 42.4106 259.148 39.5562C262.665 36.7019 274.128 35.9843 272.529 42.2766C270.93 48.5689 267.648 51.425 264.552 49.7165Z" fill="#F99088"/>
<path d="M311.222 29.6786C313.84 25.8929 315.721 16.4324 309.946 15.1753C304.171 13.9182 295.122 24.1215 299.235 27.6084C303.348 31.0953 308.604 33.4643 311.222 29.6786Z" fill="#F99088"/>
<path d="M325.497 40.2515C327.59 37.2161 329.092 29.6292 324.471 28.6189C319.849 27.6087 312.612 35.7888 315.905 38.5869C319.197 41.3849 323.403 43.2868 325.497 40.2515Z" fill="#F99088"/>
<path d="M294.012 35.3831C275.272 35.1646 272.289 61.0363 275.801 64.1856C279.312 67.3349 288.245 59.7551 292.936 59.0493C297.626 58.3436 307.113 65.071 311.975 63.3801C316.837 61.6893 312.753 35.6016 294.012 35.3831Z" fill="#F99088"/>
<path d="M95 73.1681L84 148H155L152 78.1681C152 78.1681 168.5 63.1681 167.5 55.1681C166.5 47.1681 155 50.6681 155 47.6681C155 44.6681 154.515 39.8544 151 35.1681C145.142 27.3576 132 40.6681 132 40.6681C132 40.6681 125.5 24.1682 114.5 26.1682C103.5 28.1682 104 45.1681 104 45.1681C104 45.1681 84 45.1681 84 53.1681C84 61.1681 95 73.1681 95 73.1681Z" fill="white"/>
<path d="M111.403 47.0538C107.836 43.445 107.903 32.054 113.903 29.5538C119.903 27.0537 126.248 37.4273 125.403 40.0538C124.558 42.6803 114.971 50.6627 111.403 47.0538Z" fill="#FFC0BB"/>
<path d="M97.0192 62.6248C94.2745 60.3949 89.5327 53.8545 93.4999 51.6681C97.4671 49.4817 108.875 50.8053 106.188 56.7151C103.5 62.6249 99.764 64.8546 97.0192 62.6248Z" fill="#FFC0BB"/>
<path d="M146.5 51.1682C149.747 47.906 153.274 38.9281 147.813 36.6681C142.351 34.4082 131.638 42.8478 135.069 47.008C138.5 51.1682 143.253 54.4304 146.5 51.1682Z" fill="#FFC0BB"/>
<path d="M158.677 64.1018C161.275 61.4852 164.097 54.2841 159.727 52.4714C155.357 50.6587 146.786 57.428 149.531 60.7649C152.276 64.1018 156.079 66.7183 158.677 64.1018Z" fill="#FFC0BB"/>
<path d="M128.552 53.7349C110.147 50.2012 102.629 75.1358 105.528 78.8572C108.426 82.5786 118.56 76.7005 123.302 76.8365C128.043 76.9725 136.188 85.2736 141.273 84.4705C146.358 83.6674 146.958 57.2687 128.552 53.7349Z" fill="#FFC0BB"/>
</svg>
