<svg width="366" height="366" viewBox="0 0 366 366" fill="none" xmlns="http://www.w3.org/2000/svg">
<path d="M25.4159 16.6577C43.9694 -10.3103 81.0441 -2.46672 98.2582 25.3777L122.582 64.7218C129.792 76.3845 128.042 91.4817 118.356 101.181L108.796 110.753C97.2685 122.296 97.2685 141.012 108.796 152.555L207.943 251.834C219.471 263.377 238.162 263.377 249.689 251.834L259.037 242.474C268.82 232.678 284.086 231 295.758 238.437L341.179 267.38C368.529 284.807 376.097 321.588 349.487 340.128C302.4 372.936 215.62 395.376 93.1415 272.735C-28.8109 150.62 -7.11668 63.9448 25.4159 16.6577Z" fill="#8C7BC7"/>
</svg>
