<svg width="66" height="63" viewBox="0 0 66 63" fill="none" xmlns="http://www.w3.org/2000/svg">
<path d="M11.4419 15.9426C11.4148 13.1813 13.6314 10.9643 16.3927 10.9906L44.4829 11.2589C47.2442 11.2853 49.5046 13.5452 49.5317 16.3065L49.812 44.8854C49.839 47.6467 47.6225 49.8637 44.8612 49.8374L16.771 49.5691C14.0097 49.5427 11.7493 47.2828 11.7222 44.5215L11.4419 15.9426Z" fill="#C2D5E0"/>
<path d="M39.5902 34.8663C31.7608 34.8942 30.8882 45.893 32.4003 47.2069C33.9123 48.5208 37.5335 45.2465 39.4821 44.9168C41.4308 44.5871 45.4895 47.381 47.4957 46.6322C49.5018 45.8833 47.4196 34.8384 39.5902 34.8663Z" fill="#8976B9"/>
<path d="M25.6305 40.6662C24.3166 39.5783 22.0341 36.4023 23.9075 35.3658C25.781 34.3293 31.2043 35.0194 29.956 37.8575C28.7078 40.6956 26.9443 41.7541 25.6305 40.6662Z" fill="#8976B9"/>
<path d="M47.7726 33.2276C49.2954 31.6687 50.9236 27.354 48.3258 26.2392C45.728 25.1243 40.6932 29.1468 42.338 31.1691C43.9829 33.1914 46.2497 34.7865 47.7726 33.2276Z" fill="#8976B9"/>
<path d="M51.8334 39.8516C53.1396 38.9469 54.891 36.0854 53.1684 34.9289C51.4457 33.7723 47.2785 35.9538 48.1929 37.6278C49.1073 39.3019 50.5271 40.7562 51.8334 39.8516Z" fill="#8976B9"/>
<path d="M31.7947 33.2745C29.8551 31.5251 29.838 26.0616 33.0598 24.8933C36.2816 23.725 39.75 28.7335 39.3068 29.9889C38.8636 31.2444 33.7343 35.0239 31.7947 33.2745Z" fill="#8976B9"/>
<path d="M29.5216 17.6128L43.984 17.7509" stroke="#5B5377" stroke-linecap="round"/>
<path d="M16.1716 17.4854L24.5153 17.565" stroke="#5B5377" stroke-linecap="round"/>
<path d="M16.2296 23.3938L27.0764 23.4974" stroke="#5B5377" stroke-linecap="round"/>
<path d="M16.2233 27.5133L25.1698 27.5988" stroke="#5B5377" stroke-linecap="round"/>
<path d="M16.3087 31.4714L22.1493 31.5272" stroke="#5B5377" stroke-linecap="round"/>
</svg>
