<svg width="386" height="386" viewBox="0 0 386 386" fill="none" xmlns="http://www.w3.org/2000/svg">
<path fill-rule="evenodd" clip-rule="evenodd" d="M252.512 298.52C226.778 315.581 195.912 325.518 162.725 325.518C72.8545 325.518 0 252.648 0 162.759C0 72.8696 72.8545 0 162.725 0C252.596 0 325.45 72.8696 325.45 162.759C325.45 195.911 315.54 226.748 298.522 252.469L376.468 330.431C389.177 343.143 389.177 363.754 376.468 376.466C363.758 389.178 343.152 389.178 330.442 376.466L252.512 298.52ZM311.89 162.759C311.89 245.157 245.107 311.954 162.725 311.954C80.3437 311.954 13.5604 245.157 13.5604 162.759C13.5604 80.3604 80.3437 13.5632 162.725 13.5632C245.107 13.5632 311.89 80.3604 311.89 162.759Z" fill="#8C7BC7"/>
</svg>
